<svg width="0" height="0" class="hidden">
  <symbol xmlns="http://www.w3.org/2000/svg" viewBox="0 0 40 40" id="features-pencil">
    <path fill="#2aacc8" d="M20 0c11.046 0 20 8.954 20 20s-8.954 20-20 20S0 31.046 0 20 8.954 0 20 0z"></path>
    <path fill="#fff" d="M18.379 25.698l-4.07-4.236 12.63-14.46 4.07 4.236zm-1.691 1.936l-4.254-4.024 1.392-1.593 4.069 4.235zm-6.682 3.375l1.735-6.441 4.257 4.021z"></path>
  </symbol>
	<symbol xmlns="http://www.w3.org/2000/svg" viewBox="0 0 40 40" id="features-design">
    <path fill="#2aacc8" d="M20 0c11.046 0 20 8.954 20 20s-8.954 20-20 20S0 31.046 0 20 8.954 0 20 0z"></path>
    <path fill="#fff" d="M25.624 27.99v-1.316h2.882v-2.72h1.486v4.037zm2.882-15.677h-2.882v-1.317h4.368v4.036h-1.486zm-18.014 2.719H9.006v-4.036h4.368v1.317h-2.882zm1.396-1.317H27.11v11.557H11.888zm1.486 10.24h12.25v-8.923h-12.25zm1.441-7.521h9.413v6.119h-9.413zm-4.323 10.24h2.882v1.317H9.006v-4.036h1.486z"></path>
  </symbol>
	<symbol xmlns="http://www.w3.org/2000/svg" viewBox="0 0 40 40" id="features-layer">
    <path fill="#2aacc8" d="M20 0c11.046 0 20 8.954 20 20s-8.954 20-20 20S0 31.046 0 20 8.954 0 20 0z"></path>
    <path fill="#fff" d="M12 12h16v4H12zm0 6h16v4H12zm0 6h16v4H12z"></path>
  </symbol>
	<symbol xmlns="http://www.w3.org/2000/svg" viewBox="0 0 40 40" id="features-airplane">
    <path fill="#2aacc8" d="M20 0c11.046 0 20 8.954 20 20s-8.954 20-20 20S0 31.046 0 20 8.954 0 20 0z"></path>
    <path fill="#fff" d="M37 22.006l-8.853 2.77-10.902-9.56 8.448 10.297-9.467 3.018-4.874-19.349zm-11.008 5.025v5.324l-3.116-4.4z"></path>
  </symbol>
	<symbol xmlns="http://www.w3.org/2000/svg" viewBox="0 0 5 7" id="arrow-right">
    <path d="M1.333 7L.002 5.727l2.33-2.231-.004-.003V3.49L.015 1.273l1.33-1.274 3.65 3.496z"></path>
  </symbol>
	<symbol xmlns="http://www.w3.org/2000/svg" viewBox="0 0 14 24" id="arrow">
    <path fill="#2aacc8" d="M7.75 13.556l4.364 9.062-3.008 1.359-4.471-9.285L0 19.18V0l14 13.556z"></path>
  </symbol>
  <symbol xmlns="http://www.w3.org/2000/svg" viewBox="0 0 20 20" id="works-slider-arrow-left">
    <path fill="#81e4ed" d="M10 0c5.523 0 10 4.477 10 10s-4.477 10-10 10S0 15.523 0 10 4.477 0 10 0z"></path>
    <path fill="#434343" d="M11.134 15l1.863-1.82-3.26-3.187.004-.005-.002-.002 3.242-3.168-1.862-1.82-5.11 4.995z"></path>
  </symbol>
  <symbol xmlns="http://www.w3.org/2000/svg" viewBox="0 0 20 20" id="works-slider-arrow-right">
    <path fill="#81e4ed" d="M10 0c5.523 0 10 4.477 10 10s-4.477 10-10 10S0 15.523 0 10 4.477 0 10 0z"></path>
    <path fill="#434343" d="M8.866 15l-1.863-1.82 3.26-3.187-.004-.005.002-.002-3.242-3.168 1.862-1.82 5.11 4.995z"></path>
  </symbol>
  <symbol xmlns="http://www.w3.org/2000/svg" viewBox="0 0 35 25" id="eye">
    <path fill="#fff" d="M17.325.825c10 0 17.48 11.658 17.48 11.658s-7.543 11.659-17.48 11.659C6.699 24.142.162 12.483.162 12.483S6.762.825 17.325.825zm-5.146 11.67a5.239 5.239 0 1010.478.001 5.239 5.239 0 00-10.478 0zm5.27-2.618a2.607 2.607 0 11.001 5.215 2.607 2.607 0 010-5.215z"></path>
  </symbol>
  <symbol xmlns="http://www.w3.org/2000/svg" viewBox="0 0 20 26" id="link">
    <path fill="#fff" d="M18.63 4.076l-5.197-3a2 2 0 00-2.732.732L7.2 7.87a2 2 0 00.732 2.732l.866.5 1-1.732a1 1 0 01-.366-1.366l2.5-4.33a1 1 0 011.366-.366l3.464 2a1 1 0 01.366 1.366l-2.5 4.33a1 1 0 01-1.366.366l-1 1.732.866.5a2 2 0 002.732-.732l3.5-6.062a2 2 0 00-.732-2.732zM8.896 16.933l4-6.929a1 1 0 00-1.732-1l-4 6.929a1 1 0 101.732 1zm-1.098-4.099l-.866-.5a2 2 0 00-2.732.733L.7 19.129a2 2 0 00.732 2.732l5.196 3a2 2 0 002.732-.732l3.5-6.062a2 2 0 00-.732-2.733l-.866-.5-1 1.733a1 1 0 01.366 1.366l-2.5 4.33a1 1 0 01-1.366.366l-3.464-2a1 1 0 01-.366-1.366l2.5-4.33a1 1 0 011.366-.366z"></path>
  </symbol>
  <symbol xmlns="http://www.w3.org/2000/svg" viewBox="0 0 24 23" id="comments">
    <path fill="#2aacc8" d="M16.668 16.679L9 22.999l1.725-5.69C4.698 16.85 0 13.163 0 8.68 0 3.887 5.373 0 12 0s12 3.887 12 8.68c0 3.597-3.023 6.682-7.332 8zM12 1.813c-5.244 0-9.494 3.075-9.494 6.868 0 3.792 4.25 6.867 9.494 6.867 5.243 0 9.494-3.075 9.494-6.867 0-3.793-4.25-6.868-9.494-6.868zM7.5 8.161h9v1.484h-9zm0-2.968h9v1.484h-9zm6.76 7.42h-4.5v-1.484h4.5z"></path>
  </symbol>
  <symbol xmlns="http://www.w3.org/2000/svg" viewBox="0 0 24 20" id="clients">
    <path fill="#2aacc8" d="M23.997 14.007v-.916c0-.917-1.157-1.833-1.157-1.833-2.09-.62-3.293-1.66-3.853-2.266v-.615c.68.08 2.051-.408 1.455-.701-.289-.142-.462-.401-.57-.656.07-.196.123-.401.135-.62l.015-.271a.372.372 0 00.117.024.39.39 0 00.386-.393v-.785a.39.39 0 00-.386-.393c-.01 0-.02.006-.032.007l.029-.508c.077-1.401-.954-2.607-2.31-2.607-1.355 0-2.388 1.206-2.311 2.607l.028.508c-.011-.001-.021-.007-.033-.007a.39.39 0 00-.385.393v.785a.39.39 0 00.385.393.371.371 0 00.117-.024l.014.27c.01.193.048.377.105.552-.106.277-.284.57-.599.725-.613.302.861.811 1.516.694v.622c-.532.576-1.651 1.536-3.547 2.163l3.151 2.852zm-9.408-7.174V5.58a.63.63 0 00-.634-.627c-.019 0-.034.009-.053.01l.047-.81c.128-2.235-1.569-4.159-3.797-4.159-2.229 0-3.927 1.924-3.801 4.16l.045.81c-.018-.002-.034-.01-.053-.01a.63.63 0 00-.634.626v1.253a.63.63 0 00.634.626c.068 0 .13-.019.191-.038l.024.431c.067 1.181.73 2.187 1.68 2.771v1.364c-.922.97-2.9 2.627-6.335 3.616 0 0-1.903 1.462-1.903 2.924v1.462h20.298v-1.462c0-1.462-1.903-2.924-1.903-2.924-3.435-.99-5.414-2.647-6.335-3.616v-1.366c.948-.585 1.61-1.59 1.677-2.769l.025-.431c.062.02.124.038.193.038a.63.63 0 00.634-.626z"></path>
  </symbol>
  <symbol xmlns="http://www.w3.org/2000/svg" viewBox="0 0 28 25" id="download">
    <path fill="#fff" d="M28.018 16.937V25H0v-8.063h2.385l.958 5.071h21.332l.958-5.071zm-14.046 2.402L3.057 7.929h6.954V4.997h7.995v2.93h7.022zm4.034-18.31h-7.995V-.035h7.995zm0 2.965h-7.995V1.955h7.995z"></path>
  </symbol>
</svg>
